<svg width="538" height="368" viewBox="0 0 538 368" fill="none" xmlns="http://www.w3.org/2000/svg">
<path d="M470.75 97.3975L418.513 30.1284C409.041 17.9311 394.465 10.7949 379.022 10.7949L158.978 10.7949C143.535 10.7949 128.959 17.931 119.487 30.1284L23.8136 153.334C9.8021 171.377 9.80209 196.623 23.8136 214.666L33.625 227.301M504.375 140.699L514.186 153.334C528.198 171.377 528.198 196.623 514.186 214.666L418.513 337.872C409.041 350.069 394.465 357.205 379.022 357.205L158.978 357.205C143.535 357.205 128.959 350.069 119.487 337.872L67.25 270.603" stroke="#432DCB" stroke-width="20"/>
<circle cx="269" cy="184" r="129" stroke="#432DCB" stroke-width="20"/>
<circle cx="269" cy="184" r="80" fill="#432DCB"/>
<path d="M304.5 184.5C304.5 164.894 288.606 149 269 149" stroke="white" stroke-width="30" stroke-linecap="round"/>
</svg>
